<?xml version="1.0" encoding="UTF-8"?>
<svg version="1.1" xmlns="http://www.w3.org/2000/svg" width="340" height="55">
<path d="M0 0 C3.3 0 6.6 0 10 0 C12.71558405 5.23719781 15.05680619 10.48688467 17.16796875 15.99609375 C17.83467323 17.9619739 17.83467323 17.9619739 19 19 C19.20681396 18.45996338 19.41362793 17.91992676 19.62670898 17.36352539 C20.56088784 14.92878405 21.49913747 12.49563181 22.4375 10.0625 C22.76298828 9.21236328 23.08847656 8.36222656 23.42382812 7.48632812 C23.73642578 6.67744141 24.04902344 5.86855469 24.37109375 5.03515625 C24.65911865 4.2862915 24.94714355 3.53742676 25.24389648 2.76586914 C26 1 26 1 27 0 C30.3 0 33.6 0 37 0 C37 10.89 37 21.78 37 33 C34.03 33 31.06 33 28 33 C27.67 29.37 27.34 25.74 27 22 C25.35 25.63 23.7 29.26 22 33 C19.69 33 17.38 33 15 33 C13.35 29.37 11.7 25.74 10 22 C9.67 25.63 9.34 29.26 9 33 C6.03 33 3.06 33 0 33 C0 22.11 0 11.22 0 0 Z " fill="#F2F3F2" transform="translate(54,7)"/>
<path d="M0 0 C5.14074768 2.72357493 8.60467716 6.87185333 11.08203125 12.0625 C12.54894743 18.99701286 12.68328761 25.20922369 9.109375 31.4921875 C5.83865713 35.9357867 1.73042068 38.9843633 -3.23046875 41.3125 C-3.23046875 40.6525 -3.23046875 39.9925 -3.23046875 39.3125 C-4.22046875 39.39371094 -5.21046875 39.47492187 -6.23046875 39.55859375 C-18.23417805 40.2468206 -18.23417805 40.2468206 -23.04296875 36.125 C-27.42486766 31.6850627 -28.43974417 27.16501826 -28.79296875 21.0625 C-28.70292883 17.37146881 -28.70292883 17.37146881 -30.23046875 14.3125 C-30.10045942 7.81203338 -27.60619087 4.71498495 -23.23046875 0.3125 C-22.36421875 0.621875 -22.36421875 0.621875 -21.48046875 0.9375 C-14.70336488 2.06701731 -7.86905597 -2.42548835 0 0 Z M-19.60546875 14.0625 C-20.75634454 18.20565284 -21.34121923 22.21951562 -19.28515625 26.09375 C-16.73705516 29.36301177 -14.27702309 31.42423197 -10.23046875 32.3125 C-7.13120056 31.99051034 -7.13120056 31.99051034 -4.23046875 31.3125 C-1.23046875 31.3125 -1.23046875 31.3125 0.76953125 32.3125 C3.27643558 27.80628767 3.95113679 23.44483043 3.76953125 18.3125 C2.55505369 14.20313567 0.46651714 11.78220788 -3.10546875 9.375 C-9.94587524 7.04926179 -14.98556039 8.18261663 -19.60546875 14.0625 Z " fill="#5274EE" transform="translate(37.23046875,3.6875)"/>
<path d="M0 0 C9 0 9 0 11.55859375 2.3359375 C12.48865234 3.84027344 12.48865234 3.84027344 13.4375 5.375 C14.39462891 6.87160156 14.39462891 6.87160156 15.37109375 8.3984375 C16.17740234 9.68621094 16.17740234 9.68621094 17 11 C17.66 11.66 18.32 12.32 19 13 C19.66 13 20.32 13 21 13 C21 8.71 21 4.42 21 0 C23.97 0 26.94 0 30 0 C30 10.89 30 21.78 30 33 C21 33 21 33 18.22265625 30.375 C17.47175745 29.27035028 16.75179609 28.14410266 16.0625 27 C14.74297986 24.96926536 13.39468818 22.98145974 12 21 C11.34 21 10.68 21 10 21 C9.67 24.96 9.34 28.92 9 33 C6.03 33 3.06 33 0 33 C0 22.11 0 11.22 0 0 Z M9 16 C9.33 16.99 9.66 17.98 10 19 C10 18.01 10 17.02 10 16 C9.67 16 9.34 16 9 16 Z " fill="#F2F2F2" transform="translate(99,7)"/>
<path d="M0 0 C2.60797729 2.00099243 4.4381795 4.10658751 6 7 C6.3125 9.875 6.3125 9.875 6 12 C6.33 12.33 6.66 12.66 7 13 C7.76035222 17.43250785 7.91536688 21.3941396 5.6484375 25.37109375 C2.30011021 29.39056154 -0.66517782 32.26776951 -6 33 C-11.48705914 33.20963847 -15.67437774 32.75455802 -20 29.1875 C-23.29102641 26.11007386 -24.83389759 23.49492165 -25.3359375 18.9765625 C-25.46869128 7.58628842 -25.46869128 7.58628842 -21 3 C-14.23681948 -2.32420594 -8.00771018 -3.02683782 0 0 Z M-14.9375 9.125 C-16.46849826 11.82676164 -16.8757742 13.89435505 -17 17 C-15.39588152 20.52906067 -14.25840638 21.82772908 -11 24 C-8 24.5 -8 24.5 -5 24 C-3.08743288 22.11922127 -3.08743288 22.11922127 -2 20 C-4.97 20 -7.94 20 -11 20 C-11 17.69 -11 15.38 -11 13 C-8.69 13 -6.38 13 -4 13 C-3.67 12.01 -3.34 11.02 -3 10 C-4.99557113 7.5717978 -4.99557113 7.5717978 -8.9375 7.6875 C-11.46853946 7.76544868 -12.72749008 7.84176843 -14.9375 9.125 Z " fill="#E6E7E7" transform="translate(232,8)"/>
<path d="M0 0 C2.84625 -0.061875 5.6925 -0.12375 8.625 -0.1875 C9.51010254 -0.21481201 10.39520508 -0.24212402 11.30712891 -0.27026367 C16.30340257 -0.32255418 19.66856306 0.23821223 24 3 C27.62721052 6.62721052 29.06278432 9.97311587 30 15 C30 19.95743789 29.07890721 24.04140501 26 28 C22.10528426 31.4197504 19.81131187 33.13207541 14.6484375 33.09765625 C13.49867432 33.09390991 13.49867432 33.09390991 12.32568359 33.09008789 C10.86509521 33.07643188 10.86509521 33.07643188 9.375 33.0625 C6.28125 33.041875 3.1875 33.02125 0 33 C0 22.11 0 11.22 0 0 Z M9 8 C9 13.61 9 19.22 9 25 C14.62019508 25.26479776 14.62019508 25.26479776 19 23 C21.09679403 20.30412197 20.99510821 18.907056 20.8125 15.4375 C20.20761598 12.16263012 20.20761598 12.16263012 18.9375 10.125 C16.20849646 8.37159088 16.20849646 8.37159088 9 8 Z " fill="#EDEEEE" transform="translate(154,7)"/>
<path d="M0 0 C2.92713853 2.58276929 3.34684812 5.12572274 4.125 8.875 C3.125 9.875 3.125 9.875 1.05859375 9.97265625 C0.23488281 9.96105469 -0.58882813 9.94945312 -1.4375 9.9375 C-2.26378906 9.92847656 -3.09007812 9.91945313 -3.94140625 9.91015625 C-4.57949219 9.89855469 -5.21757812 9.88695312 -5.875 9.875 C-5.875 8.885 -5.875 7.895 -5.875 6.875 C-7.525 7.205 -9.175 7.535 -10.875 7.875 C-10.215 7.875 -9.555 7.875 -8.875 7.875 C-8.875 8.865 -8.875 9.855 -8.875 10.875 C-8.27171875 11.04515625 -7.6684375 11.2153125 -7.046875 11.390625 C1.75284701 14.0589278 1.75284701 14.0589278 4.125 17.875 C4.71838457 22.54790346 4.81874982 24.69305585 2.4375 28.75 C-0.76771026 31.69532835 -2.84096835 32.81793971 -7.2421875 32.94140625 C-11.69386378 32.72344584 -14.2536279 32.31883721 -17.9375 29.6875 C-20.04345346 26.63047079 -20.61869601 24.54869054 -20.875 20.875 C-17.905 20.875 -14.935 20.875 -11.875 20.875 C-11.545 21.865 -11.215 22.855 -10.875 23.875 C-8.895 23.875 -6.915 23.875 -4.875 23.875 C-7.14515853 20.46976221 -8.08359986 20.18914983 -11.8125 18.875 C-15.19713875 17.6786623 -17.65099337 16.76341112 -19.875 13.875 C-21.06097145 9.05204944 -21.41149041 7.03381929 -19.3125 2.5 C-13.78486531 -3.45283735 -7.04213991 -2.75561997 0 0 Z " fill="#E5E6E5" transform="translate(293.875,8.125)"/>
<path d="M0 0 C6.6 0 13.2 0 20 0 C20 2.64 20 5.28 20 8 C15.545 8.495 15.545 8.495 11 9 C11.33 9.66 11.66 10.32 12 11 C14.3140622 11.73075648 16.64828869 12.40138258 19 13 C19 15.31 19 17.62 19 20 C15.7 20 12.4 20 9 20 C9.33 20.99 9.66 21.98 10 23 C9.67 23.66 9.34 24.32 9 25 C12.63 25 16.26 25 20 25 C20 27.64 20 30.28 20 33 C13.4 33 6.8 33 0 33 C0 22.11 0 11.22 0 0 Z " fill="#E9EAEA" transform="translate(246,7)"/>
<path d="M0 0 C8.25 0 16.5 0 25 0 C25 2.64 25 5.28 25 8 C22.36 8 19.72 8 17 8 C17 16.25 17 24.5 17 33 C10 34 10 34 8 33 C8 24.75 8 16.5 8 8 C5.36 8 2.72 8 0 8 C0 5.36 0 2.72 0 0 Z " fill="#EBEBEB" transform="translate(304,7)"/>
<path d="M0 0 C0 2 0 2 -1.9375 4 C-2.618125 4.66 -3.29875 5.32 -4 6 C-5.60530177 9.21060353 -5.4755557 12.51705681 -5 16 C-2.50211632 20.32326022 0.41244207 22.16497683 5 24 C8.2366963 24.70758326 8.2366963 24.70758326 11 25 C4.76243094 31.23756906 4.76243094 31.23756906 0.9375 31.5 C-4.24520291 31.45860461 -6.81816336 29.4254107 -10.40625 25.8515625 C-12.39798109 23.53763962 -13.3696998 22.01143431 -14 19 C-14.19980469 18.24589844 -14.39960938 17.49179687 -14.60546875 16.71484375 C-15.16253535 13.9378877 -15.40691928 11.80905568 -15 9 C-11.49702891 4.27747601 -6.01892928 0 0 0 Z " fill="#90A988" transform="translate(23,12)"/>
<path d="M0 0 C2.97 0 5.94 0 9 0 C9 10.89 9 21.78 9 33 C6.03 33 3.06 33 0 33 C0 22.11 0 11.22 0 0 Z " fill="#F2F4F3" transform="translate(137,7)"/>
<path d="M0 0 C2.64 0 5.28 0 8 0 C9.0872175 3.52670901 9.12919165 6.80246498 9.1328125 10.48046875 C9.13410156 11.72634766 9.13539063 12.97222656 9.13671875 14.25585938 C9.13285156 15.55330078 9.12898437 16.85074219 9.125 18.1875 C9.12886719 19.49654297 9.13273438 20.80558594 9.13671875 22.15429688 C9.13542969 23.39630859 9.13414062 24.63832031 9.1328125 25.91796875 C9.13168457 27.06031982 9.13055664 28.2026709 9.12939453 29.37963867 C9 32 9 32 8 33 C5.36 33 2.72 33 0 33 C0 22.11 0 11.22 0 0 Z " fill="#F6F6F6" transform="translate(191,7)"/>
<path d="M0 0 C1.32 0 2.64 0 4 0 C4 0.66 4 1.32 4 2 C4.66 2 5.32 2 6 2 C6 3.32 6 4.64 6 6 C6.66 6 7.32 6 8 6 C8 6.66 8 7.32 8 8 C8.66 8 9.32 8 10 8 C10.5553785 14.66454203 9.76862722 19.40784349 6 25 C3.4375 28 3.4375 28 1 30 C0.01 30 -0.98 30 -2 30 C-1.566875 28.783125 -1.13375 27.56625 -0.6875 26.3125 C1.32426904 20.31551229 2.65442688 14.17436743 4 8 C3.34 7.67 2.68 7.34 2 7 C1.26924352 4.6859378 0.59861742 2.35171131 0 0 Z " fill="#5172FA" transform="translate(39,12)"/>
<path d="M0 0 C4.64106125 2.4588404 8.61110159 6.31385655 10.51953125 11.25390625 C11.00470298 12.92168409 11.39633455 14.61615135 11.76953125 16.3125 C11.10953125 16.3125 10.44953125 16.3125 9.76953125 16.3125 C9.76953125 15.6525 9.76953125 14.9925 9.76953125 14.3125 C9.10953125 14.3125 8.44953125 14.3125 7.76953125 14.3125 C7.76953125 12.9925 7.76953125 11.6725 7.76953125 10.3125 C7.10953125 10.3125 6.44953125 10.3125 5.76953125 10.3125 C5.76953125 9.6525 5.76953125 8.9925 5.76953125 8.3125 C4.77953125 8.3125 3.78953125 8.3125 2.76953125 8.3125 C3.09953125 7.3225 3.42953125 6.3325 3.76953125 5.3125 C1.45953125 4.6525 -0.85046875 3.9925 -3.23046875 3.3125 C-3.23046875 2.9825 -3.23046875 2.6525 -3.23046875 2.3125 C-7.19046875 1.9825 -11.15046875 1.6525 -15.23046875 1.3125 C-15.23046875 1.9725 -15.23046875 2.6325 -15.23046875 3.3125 C-16.22046875 3.3125 -17.21046875 3.3125 -18.23046875 3.3125 C-18.56046875 4.3025 -18.89046875 5.2925 -19.23046875 6.3125 C-19.80796875 6.415625 -20.38546875 6.51875 -20.98046875 6.625 C-23.62170776 7.43204525 -24.17598014 8.24831028 -25.85546875 10.375 C-26.63921875 11.344375 -27.42296875 12.31375 -28.23046875 13.3125 C-28.89046875 13.3125 -29.55046875 13.3125 -30.23046875 13.3125 C-29.93923376 7.34218261 -27.20232491 4.417966 -23.23046875 0.3125 C-22.36421875 0.621875 -22.36421875 0.621875 -21.48046875 0.9375 C-14.70336488 2.06701731 -7.86905597 -2.42548835 0 0 Z " fill="#455EBD" transform="translate(37.23046875,3.6875)"/>
<path d="M0 0 C3.3 0 6.6 0 10 0 C9.67 1.98 9.34 3.96 9 6 C7.75283203 6.05607422 7.75283203 6.05607422 6.48046875 6.11328125 C5.39378906 6.17902344 4.30710937 6.24476562 3.1875 6.3125 C1.56908203 6.39951172 1.56908203 6.39951172 -0.08203125 6.48828125 C-3.30002793 7.05261534 -3.98307452 7.56092733 -6 10 C-7.21084367 10.92044862 -8.44036342 11.81685748 -9.6875 12.6875 C-10.31011719 13.12449219 -10.93273437 13.56148437 -11.57421875 14.01171875 C-12.04472656 14.33785156 -12.51523438 14.66398437 -13 15 C-13.66 14.01 -14.32 13.02 -15 12 C-13.33333333 10.33333333 -11.66666667 8.66666667 -10 7 C-9.195625 6.1028125 -9.195625 6.1028125 -8.375 5.1875 C-7 4 -7 4 -4 4 C-3.67 3.34 -3.34 2.68 -3 2 C-2.01 2 -1.02 2 0 2 C0 1.34 0 0.68 0 0 Z " fill="#5171FA" transform="translate(22,5)"/>
<path d="M0 0 C0 2 0 2 -1.6875 3.9375 C-4 6 -4 6 -6.625 7.5 C-9.32413854 9.20471908 -10.00198562 10.00595685 -11 13 C-11.38749213 15.32495277 -11.72982839 17.65851268 -12 20 C-14 19 -14 19 -14.6953125 16.9609375 C-15.16573231 14.12986556 -15.39117665 11.85180393 -15 9 C-11.51851091 4.27205185 -6.00616835 0 0 0 Z " fill="#CED5D1" transform="translate(23,12)"/>
<path d="M0 0 C1.48378488 4.45135463 -0.07566272 7.83318903 -2 12 C-4.1875 14.0625 -4.1875 14.0625 -6 15 C-6 14.34 -6 13.68 -6 13 C-7.65 12.67 -9.3 12.34 -11 12 C-9.68 10.68 -8.36 9.36 -7 8 C-8.65 7.67 -10.3 7.34 -12 7 C-9.53721199 4.53721199 -7.29323018 4.00228745 -4 3 C-3.67 3.66 -3.34 4.32 -3 5 C-2.01 3.35 -1.02 1.7 0 0 Z " fill="#4E707C" transform="translate(40,30)"/>
<path d="M0 0 C0.33 0 0.66 0 1 0 C1.5553785 6.66454203 0.76862722 11.40784349 -3 17 C-5.5625 20 -5.5625 20 -8 22 C-8.99 22 -9.98 22 -11 22 C-10.60404157 20.51515588 -10.18249294 19.0371169 -9.75 17.5625 C-9.40195312 16.32693359 -9.40195312 16.32693359 -9.046875 15.06640625 C-8 13 -8 13 -6.015625 12.15234375 C-4 12 -4 12 -2 13 C-2 11.35 -2 9.7 -2 8 C-1.34 8 -0.68 8 0 8 C0 5.36 0 2.72 0 0 Z " fill="#5A7DE9" transform="translate(48,20)"/>
<path d="M0 0 C0.33 0 0.66 0 1 0 C1.08636719 0.67546875 1.17273438 1.3509375 1.26171875 2.046875 C2.10301681 7.84648594 2.10301681 7.84648594 5.4375 12.5 C6.283125 12.995 7.12875 13.49 8 14 C8.99 14.66 9.98 15.32 11 16 C8.36 16 5.72 16 3 16 C2.67 15.01 2.34 14.02 2 13 C0.02 13.33 -1.96 13.66 -4 14 C-3.525625 12.989375 -3.05125 11.97875 -2.5625 10.9375 C-1.0063672 7.34077795 -0.3987054 3.90731291 0 0 Z " fill="#7A8C73" transform="translate(16,20)"/>
<path d="M0 0 C0.66 0 1.32 0 2 0 C2 0.66 2 1.32 2 2 C1.34 2 0.68 2 0 2 C0.0825 2.99 0.165 3.98 0.25 5 C0.28790692 9.63412067 -1.71714715 13.07634666 -4 17 C-4.66 16.67 -5.32 16.34 -6 16 C-5.70623339 9.39025136 -4.82534565 4.82534565 0 0 Z " fill="#98AB91" transform="translate(16,18)"/>
<path d="M0 0 C0.33 0.99 0.66 1.98 1 3 C0.01 3.33 -0.98 3.66 -2 4 C-2.99897738 5.77237922 -3.99542972 7.54664944 -4.94921875 9.34375 C-6.28368601 11.4471482 -7.64621769 12.24342712 -10 13 C-9.74483901 7.76919965 -7.85862875 5.13740322 -4.5703125 1.3203125 C-3 0 -3 0 0 0 Z " fill="#1D2237" transform="translate(17,4)"/>
<path d="M0 0 C1.13566406 -0.00515625 2.27132813 -0.0103125 3.44140625 -0.015625 C6.4375 0.25 6.4375 0.25 9.4375 2.25 C4.1575 2.25 -1.1225 2.25 -6.5625 2.25 C-6.5625 2.91 -6.5625 3.57 -6.5625 4.25 C-7.5525 4.25 -8.5425 4.25 -9.5625 4.25 C-9.8925 5.24 -10.2225 6.23 -10.5625 7.25 C-11.8825 7.25 -13.2025 7.25 -14.5625 7.25 C-14.2325 6.26 -13.9025 5.27 -13.5625 4.25 C-12.5725 4.25 -11.5825 4.25 -10.5625 4.25 C-10.5625 3.59 -10.5625 2.93 -10.5625 2.25 C-7.02698834 0.06093627 -4.11111926 -0.01870816 0 0 Z " fill="#2C366B" transform="translate(28.5625,2.75)"/>
<path d="M0 0 C0 0.99 0 1.98 0 3 C0.99 3.66 1.98 4.32 3 5 C-1.5 8 -1.5 8 -6 11 C-6.66 10.01 -7.32 9.02 -8 8 C-5.33333333 5.33333333 -2.66666667 2.66666667 0 0 Z " fill="#7B85C3" transform="translate(15,9)"/>
<path d="M0 0 C0.90492188 0.02320312 1.80984375 0.04640625 2.7421875 0.0703125 C4.10730469 0.09738281 4.10730469 0.09738281 5.5 0.125 C6.19867188 0.14820312 6.89734375 0.17140625 7.6171875 0.1953125 C7.6171875 1.1853125 7.6171875 2.1753125 7.6171875 3.1953125 C5.99394664 3.41693579 4.3684665 3.62221053 2.7421875 3.8203125 C1.38480469 3.99433594 1.38480469 3.99433594 0 4.171875 C-0.78632813 4.17960937 -1.57265625 4.18734375 -2.3828125 4.1953125 C-3.0428125 3.5353125 -3.7028125 2.8753125 -4.3828125 2.1953125 C-2.3828125 0.1953125 -2.3828125 0.1953125 0 0 Z " fill="#EAF0F0" transform="translate(230.3828125,16.8046875)"/>
<path d="M0 0 C0 0.66 0 1.32 0 2 C-1.60032137 2.84069415 -3.20541171 3.67231505 -4.8125 4.5 C-6.15248047 5.19609375 -6.15248047 5.19609375 -7.51953125 5.90625 C-10 7 -10 7 -13 7 C-4.89473684 0 -4.89473684 0 0 0 Z " fill="#C4CFEB" transform="translate(23,12)"/>
<path d="M0 0 C0.99 0.33 1.98 0.66 3 1 C-0.61328125 5.6875 -0.61328125 5.6875 -2 7 C-2.99 7 -3.98 7 -5 7 C-3.75023244 3.34683329 -3.32901247 2.21934164 0 0 Z " fill="#527AE3" transform="translate(42,35)"/>
<path d="M0 0 C1 3 1 3 -0.25 6.5625 C-2 10 -2 10 -5 12 C-4.42365861 7.24518354 -2.44931479 4.02951788 0 0 Z " fill="#3D5EA1" transform="translate(40,30)"/>
<path d="M0 0 C0.33 0.99 0.66 1.98 1 3 C0.01 3.33 -0.98 3.66 -2 4 C-2.66 4.66 -3.32 5.32 -4 6 C-4.99 5.34 -5.98 4.68 -7 4 C-3.375 0 -3.375 0 0 0 Z " fill="#0C1928" transform="translate(17,4)"/>
<path d="M0 0 C0 0.99 0 1.98 0 3 C-0.99 3 -1.98 3 -3 3 C-3.33 3.99 -3.66 4.98 -4 6 C-5.32 6 -6.64 6 -8 6 C-7.67 5.01 -7.34 4.02 -7 3 C-6.01 3 -5.02 3 -4 3 C-4 2.34 -4 1.68 -4 1 C-2 0 -2 0 0 0 Z " fill="#37509A" transform="translate(22,4)"/>
<path d="M0 0 C1.9453125 -0.29296875 1.9453125 -0.29296875 4.125 -0.1875 C5.40375 -0.125625 6.6825 -0.06375 8 0 C5.99226044 2.00773956 4.63126383 2.99392854 2 4 C-0.25 3.625 -0.25 3.625 -2 3 C-1.34 2.01 -0.68 1.02 0 0 Z " fill="#5879F7" transform="translate(16,9)"/>
<path d="M0 0 C2.875 0.3125 2.875 0.3125 6 1 C6.66 1.99 7.32 2.98 8 4 C3.545 3.01 3.545 3.01 -1 2 C-0.67 1.34 -0.34 0.68 0 0 Z " fill="#374A97" transform="translate(35,5)"/>
<path d="M0 0 C0.33 0.99 0.66 1.98 1 3 C0 4 0 4 -3.5625 4.0625 C-4.696875 4.041875 -5.83125 4.02125 -7 4 C-4.77810176 1.77810176 -2.91517292 1.07401108 0 0 Z " fill="#596460" transform="translate(35,33)"/>
<path d="" fill="#000000" transform="translate(0,0)"/>
<path d="" fill="#000000" transform="translate(0,0)"/>
<path d="" fill="#000000" transform="translate(0,0)"/>
<path d="" fill="#000000" transform="translate(0,0)"/>
<path d="" fill="#F4F4F4" transform="translate(0,0)"/>
</svg>
