<svg xmlns="http://www.w3.org/2000/svg" xmlns:xlink="http://www.w3.org/1999/xlink" width="400" zoomAndPan="magnify" viewBox="0 0 300 60" height="80" preserveAspectRatio="xMidYMid meet" version="1.0"><defs><g/><clipPath id="47b3757964"><path d="M 36 0.238281 L 294.839844 0.238281 L 294.839844 58.320312 L 36 58.320312 Z M 36 0.238281 " clip-rule="nonzero"/></clipPath><clipPath id="912f1d504b"><rect x="0" width="259" y="0" height="59"/></clipPath><clipPath id="f1fc3c984c"><path d="M 0.742188 13.164062 L 31.839844 13.164062 L 31.839844 44.257812 L 0.742188 44.257812 Z M 0.742188 13.164062 " clip-rule="nonzero"/></clipPath><clipPath id="6500064e3d"><path d="M 0.742188 19 L 14 19 L 14 40 L 0.742188 40 Z M 0.742188 19 " clip-rule="nonzero"/></clipPath><clipPath id="daac0cc9cb"><rect x="0" width="295" y="0" height="59"/></clipPath></defs><g transform="matrix(1, 0, 0, 1, 3, -0.000000000000001471)"><g clip-path="url(#daac0cc9cb)"><g clip-path="url(#47b3757964)"><g transform="matrix(1, 0, 0, 1, 36, -0.000000000000001471)"><g clip-path="url(#912f1d504b)"><g fill="#ffffff" fill-opacity="1"><g transform="translate(0.743271, 43.106529)"><g><path d="M 35.421875 -29.015625 L 35.421875 0 L 28.34375 0 L 28.34375 -17.40625 L 21.859375 0 L 16.15625 0 L 9.625 -17.4375 L 9.625 0 L 2.5625 0 L 2.5625 -29.015625 L 10.90625 -29.015625 L 19.046875 -8.921875 L 27.109375 -29.015625 Z M 35.421875 -29.015625 "/></g></g></g><g fill="#ffffff" fill-opacity="1"><g transform="translate(42.034236, 43.106529)"><g><path d="M 28.515625 0 L 21.453125 0 L 9.625 -17.890625 L 9.625 0 L 2.5625 0 L 2.5625 -29.015625 L 9.625 -29.015625 L 21.453125 -11.03125 L 21.453125 -29.015625 L 28.515625 -29.015625 Z M 28.515625 0 "/></g></g></g><g fill="#ffffff" fill-opacity="1"><g transform="translate(76.464103, 43.106529)"><g><path d="M 9.625 -29.015625 L 9.625 0 L 2.5625 0 L 2.5625 -29.015625 Z M 9.625 -29.015625 "/></g></g></g><g fill="#ffffff" fill-opacity="1"><g transform="translate(92.00527, 43.106529)"><g><path d="M 13.4375 -29.015625 C 16.488281 -29.015625 19.15625 -28.40625 21.4375 -27.1875 C 23.726562 -25.976562 25.5 -24.273438 26.75 -22.078125 C 28.007812 -19.890625 28.640625 -17.363281 28.640625 -14.5 C 28.640625 -11.664062 28.007812 -9.144531 26.75 -6.9375 C 25.5 -4.738281 23.722656 -3.03125 21.421875 -1.8125 C 19.128906 -0.601562 16.46875 0 13.4375 0 L 2.5625 0 L 2.5625 -29.015625 Z M 12.984375 -6.109375 C 15.648438 -6.109375 17.726562 -6.835938 19.21875 -8.296875 C 20.707031 -9.765625 21.453125 -11.832031 21.453125 -14.5 C 21.453125 -17.175781 20.707031 -19.257812 19.21875 -20.75 C 17.726562 -22.238281 15.648438 -22.984375 12.984375 -22.984375 L 9.625 -22.984375 L 9.625 -6.109375 Z M 12.984375 -6.109375 "/></g></g></g><g fill="#ffffff" fill-opacity="1"><g transform="translate(125.401839, 43.106529)"><g><path d="M 9.625 -29.015625 L 9.625 0 L 2.5625 0 L 2.5625 -29.015625 Z M 9.625 -29.015625 "/></g></g></g><g fill="#ffffff" fill-opacity="1"><g transform="translate(140.943005, 43.106529)"><g><path d="M 21.828125 -19.84375 C 21.296875 -20.800781 20.539062 -21.535156 19.5625 -22.046875 C 18.59375 -22.554688 17.445312 -22.8125 16.125 -22.8125 C 13.832031 -22.8125 12 -22.0625 10.625 -20.5625 C 9.25 -19.0625 8.5625 -17.054688 8.5625 -14.546875 C 8.5625 -11.867188 9.28125 -9.78125 10.71875 -8.28125 C 12.164062 -6.78125 14.160156 -6.03125 16.703125 -6.03125 C 18.429688 -6.03125 19.894531 -6.46875 21.09375 -7.34375 C 22.289062 -8.226562 23.164062 -9.5 23.71875 -11.15625 L 14.75 -11.15625 L 14.75 -16.359375 L 30.125 -16.359375 L 30.125 -9.796875 C 29.601562 -8.035156 28.710938 -6.394531 27.453125 -4.875 C 26.203125 -3.363281 24.613281 -2.140625 22.6875 -1.203125 C 20.757812 -0.265625 18.582031 0.203125 16.15625 0.203125 C 13.289062 0.203125 10.734375 -0.421875 8.484375 -1.671875 C 6.242188 -2.921875 4.492188 -4.660156 3.234375 -6.890625 C 1.984375 -9.128906 1.359375 -11.679688 1.359375 -14.546875 C 1.359375 -17.410156 1.984375 -19.960938 3.234375 -22.203125 C 4.492188 -24.453125 6.238281 -26.203125 8.46875 -27.453125 C 10.695312 -28.710938 13.25 -29.34375 16.125 -29.34375 C 19.59375 -29.34375 22.515625 -28.5 24.890625 -26.8125 C 27.273438 -25.132812 28.851562 -22.8125 29.625 -19.84375 Z M 21.828125 -19.84375 "/></g></g></g><g fill="#ffffff" fill-opacity="1"><g transform="translate(175.786188, 43.106529)"><g><path d="M 9.625 -23.34375 L 9.625 -17.484375 L 19.09375 -17.484375 L 19.09375 -12.03125 L 9.625 -12.03125 L 9.625 -5.65625 L 20.328125 -5.65625 L 20.328125 0 L 2.5625 0 L 2.5625 -29.015625 L 20.328125 -29.015625 L 20.328125 -23.34375 Z M 9.625 -23.34375 "/></g></g></g><g fill="#ffffff" fill-opacity="1"><g transform="translate(201.495005, 43.106529)"><g><path d="M 13.0625 0.296875 C 10.9375 0.296875 9.03125 -0.046875 7.34375 -0.734375 C 5.664062 -1.429688 4.320312 -2.453125 3.3125 -3.796875 C 2.3125 -5.148438 1.785156 -6.773438 1.734375 -8.671875 L 9.25 -8.671875 C 9.363281 -7.597656 9.738281 -6.78125 10.375 -6.21875 C 11.007812 -5.65625 11.835938 -5.375 12.859375 -5.375 C 13.898438 -5.375 14.722656 -5.613281 15.328125 -6.09375 C 15.929688 -6.570312 16.234375 -7.238281 16.234375 -8.09375 C 16.234375 -8.8125 15.992188 -9.40625 15.515625 -9.875 C 15.035156 -10.34375 14.441406 -10.726562 13.734375 -11.03125 C 13.035156 -11.332031 12.039062 -11.675781 10.75 -12.0625 C 8.875 -12.644531 7.34375 -13.222656 6.15625 -13.796875 C 4.96875 -14.378906 3.945312 -15.234375 3.09375 -16.359375 C 2.238281 -17.492188 1.8125 -18.96875 1.8125 -20.78125 C 1.8125 -23.488281 2.789062 -25.601562 4.75 -27.125 C 6.707031 -28.65625 9.257812 -29.421875 12.40625 -29.421875 C 15.59375 -29.421875 18.164062 -28.65625 20.125 -27.125 C 22.082031 -25.601562 23.128906 -23.476562 23.265625 -20.75 L 15.625 -20.75 C 15.570312 -21.6875 15.226562 -22.421875 14.59375 -22.953125 C 13.957031 -23.492188 13.144531 -23.765625 12.15625 -23.765625 C 11.300781 -23.765625 10.609375 -23.535156 10.078125 -23.078125 C 9.554688 -22.628906 9.296875 -21.976562 9.296875 -21.125 C 9.296875 -20.1875 9.734375 -19.453125 10.609375 -18.921875 C 11.492188 -18.398438 12.875 -17.835938 14.75 -17.234375 C 16.625 -16.597656 18.144531 -15.988281 19.3125 -15.40625 C 20.488281 -14.832031 21.503906 -13.992188 22.359375 -12.890625 C 23.210938 -11.785156 23.640625 -10.367188 23.640625 -8.640625 C 23.640625 -6.984375 23.21875 -5.476562 22.375 -4.125 C 21.539062 -2.78125 20.320312 -1.707031 18.71875 -0.90625 C 17.125 -0.101562 15.238281 0.296875 13.0625 0.296875 Z M 13.0625 0.296875 "/></g></g></g><g fill="#ffffff" fill-opacity="1"><g transform="translate(230.262405, 43.106529)"><g><path d="M 23.4375 -29.015625 L 23.4375 -23.34375 L 15.75 -23.34375 L 15.75 0 L 8.671875 0 L 8.671875 -23.34375 L 0.984375 -23.34375 L 0.984375 -29.015625 Z M 23.4375 -29.015625 "/></g></g></g></g></g></g><g clip-path="url(#f1fc3c984c)"><path fill="#5271ff" d="M 20.285156 44.011719 C 23.042969 43.304688 25.5 41.859375 27.449219 39.910156 C 30.308594 37.085938 32.058594 33.183594 32.058594 28.878906 C 32.058594 24.574219 30.308594 20.636719 27.449219 17.78125 C 24.589844 14.953125 20.6875 13.171875 16.351562 13.171875 C 12.046875 13.171875 8.144531 14.953125 5.320312 17.78125 C 2.964844 20.167969 1.351562 23.296875 0.878906 26.792969 C 3.367188 21.882812 8.347656 19.292969 13.324219 19.496094 C 14.300781 19.160156 15.308594 18.988281 16.351562 18.988281 C 19.074219 18.988281 21.53125 20.101562 23.347656 21.917969 C 28.691406 27.265625 26.507812 39.875 20.285156 44.011719 " fill-opacity="1" fill-rule="evenodd"/></g><g clip-path="url(#6500064e3d)"><path fill="#d2d2d2" d="M 5.554688 25.617188 C 6.292969 24.875 7.101562 24.269531 7.976562 23.800781 C 8.378906 23.09375 8.882812 22.453125 9.457031 21.882812 C 10.53125 20.804688 11.84375 19.964844 13.324219 19.496094 C 8.347656 19.292969 3.367188 21.882812 0.878906 26.792969 C 0.777344 27.464844 0.746094 28.171875 0.746094 28.878906 C 0.746094 33.082031 2.394531 36.882812 5.082031 39.707031 C 1.789062 35.90625 1.382812 29.820312 5.554688 25.617188 " fill-opacity="1" fill-rule="evenodd"/></g><path fill="#94ae89" d="M 7.976562 23.800781 C 7.101562 24.269531 6.292969 24.875 5.554688 25.617188 C 1.382812 29.820312 1.789062 35.90625 5.082031 39.707031 C 5.152344 39.773438 5.21875 39.84375 5.320312 39.941406 C 5.925781 40.546875 6.5625 41.085938 7.269531 41.589844 C 8.816406 42.566406 10.667969 43.136719 12.75 43.136719 C 17.394531 43.136719 20.890625 40.3125 22.371094 36.648438 C 20.6875 37.925781 18.605469 38.664062 16.351562 38.664062 C 13.660156 38.664062 11.203125 37.589844 9.421875 35.804688 C 7.671875 34.058594 6.5625 31.601562 6.5625 28.878906 C 6.5625 27.027344 7.066406 25.28125 7.976562 23.800781 " fill-opacity="1" fill-rule="evenodd"/></g></g></svg>