<?xml version="1.0" encoding="UTF-8"?>
<svg version="1.1" xmlns="http://www.w3.org/2000/svg" width="340" height="55">
<path d="M0 0 C3.3 0 6.6 0 10 0 C12.71558405 5.23719781 15.05680619 10.48688467 17.16796875 15.99609375 C17.83467323 17.9619739 17.83467323 17.9619739 19 19 C19.20681396 18.45996338 19.41362793 17.91992676 19.62670898 17.36352539 C20.56088784 14.92878405 21.49913747 12.49563181 22.4375 10.0625 C22.76298828 9.21236328 23.08847656 8.36222656 23.42382812 7.48632812 C23.73642578 6.67744141 24.04902344 5.86855469 24.37109375 5.03515625 C24.65911865 4.2862915 24.94714355 3.53742676 25.24389648 2.76586914 C26 1 26 1 27 0 C30.3 0 33.6 0 37 0 C37 10.56 37 21.12 37 32 C34.03 32 31.06 32 28 32 C27.67 28.37 27.34 24.74 27 21 C26.360625 22.629375 25.72125 24.25875 25.0625 25.9375 C23.125 30.875 23.125 30.875 22 32 C19.66702567 32.04092937 17.33294775 32.04241723 15 32 C13.35 28.04 11.7 24.08 10 20 C9.67 23.96 9.34 27.92 9 32 C6.03 32 3.06 32 0 32 C0 21.44 0 10.88 0 0 Z " fill="#171718" transform="translate(56,11)"/>
<path d="M0 0 C5.56611814 3.28151741 9.89853715 7.68982681 11.59375 14.046875 C12.36162952 21.95468686 11.2174036 27.19884971 6.71875 33.796875 C4.48021809 36.16708526 2.55340388 37.6808809 -0.40625 39.046875 C-1.89125 38.551875 -1.89125 38.551875 -3.40625 38.046875 C-3.05691406 37.51578125 -2.70757812 36.9846875 -2.34765625 36.4375 C-1.89261719 35.73109375 -1.43757813 35.0246875 -0.96875 34.296875 C-0.51628906 33.60078125 -0.06382813 32.9046875 0.40234375 32.1875 C2.88020376 27.73547612 3.0993746 23.06566734 2.59375 18.046875 C1.35350238 13.84381363 0.46711382 11.71229505 -3.03125 9.046875 C-7.43994193 7.74059591 -11.01655964 7.57253877 -15.40625 9.046875 C-18.70060491 12.26087979 -19.66581708 15.06346778 -19.96875 19.546875 C-19.80088864 22.75248555 -19.27042561 24.91807143 -17.40625 27.546875 C-13.69246728 30.64169393 -11.1479454 31.18071318 -6.40625 31.046875 C-3.55002513 30.69621115 -3.55002513 30.69621115 -1.40625 30.046875 C-2.72982724 35.58183435 -2.72982724 35.58183435 -5.40625 37.421875 C-10.51600845 38.48640801 -15.72652144 39.49402823 -20.50390625 36.9140625 C-25.811042 32.60976132 -28.29114234 27.91698345 -29.28125 21.171875 C-29.74484519 14.88022605 -27.96019183 10.57922465 -24.71875 5.296875 C-18.0743349 -1.16796131 -8.85474612 -3.50739944 0 0 Z " fill="#5370F3" transform="translate(39.40625,8.953125)"/>
<path d="M0 0 C9 0 9 0 11.5234375 2.23046875 C12.13445312 3.20628906 12.74546875 4.18210937 13.375 5.1875 C14.00148438 6.15042969 14.62796875 7.11335938 15.2734375 8.10546875 C16.12808594 9.53826172 16.12808594 9.53826172 17 11 C17.99 12.65 18.98 14.3 20 16 C20.33 10.72 20.66 5.44 21 0 C23.97 0 26.94 0 30 0 C30 10.56 30 21.12 30 32 C21 32 21 32 18.4765625 29.76953125 C17.86554688 28.79371094 17.25453125 27.81789063 16.625 26.8125 C15.99851562 25.84957031 15.37203125 24.88664062 14.7265625 23.89453125 C14.15679687 22.93933594 13.58703125 21.98414062 13 21 C12.01 19.35 11.02 17.7 10 16 C9.67 21.28 9.34 26.56 9 32 C6.03 32 3.06 32 0 32 C0 21.44 0 10.88 0 0 Z " fill="#181818" transform="translate(101,11)"/>
<path d="M0 0 C2.4066894 2.05449095 3.60350463 3.21461434 4.5625 6.1875 C4.5625 7.1775 4.5625 8.1675 4.5625 9.1875 C3.10457116 9.24149736 1.64607288 9.28029177 0.1875 9.3125 C-0.62460938 9.33570313 -1.43671875 9.35890625 -2.2734375 9.3828125 C-4.4375 9.1875 -4.4375 9.1875 -6.4375 7.1875 C-9.44336878 6.85351458 -11.54384299 6.62057944 -14.4375 7.1875 C-16.71558606 9.15026905 -16.71558606 9.15026905 -17.4375 12.1875 C-17.37260145 15.9516159 -17.21288789 18.23317645 -14.8125 21.1875 C-11.38973815 22.62866288 -8.99144628 22.04307966 -5.4375 21.1875 C-4.7775 20.5275 -4.1175 19.8675 -3.4375 19.1875 C-6.4075 18.8575 -9.3775 18.5275 -12.4375 18.1875 C-12.4375 16.2075 -12.4375 14.2275 -12.4375 12.1875 C-6.4975 12.1875 -0.5575 12.1875 5.5625 12.1875 C5.5625 22.6875 5.5625 22.6875 2.5625 26.1875 C-2.14256015 30.2204087 -6.39167544 31.25091774 -12.4375 31.1875 C-18.26356577 30.39752498 -20.75971736 28.27817756 -24.2734375 23.84375 C-27.56857223 19.15537038 -26.95091889 13.71217653 -26.4375 8.1875 C-24.14642959 3.25288681 -21.14359835 0.83468032 -16.4375 -1.8125 C-10.71123765 -3.65892745 -5.24459397 -2.76533137 0 0 Z " fill="#171717" transform="translate(235.4375,12.8125)"/>
<path d="M0 0 C2.84625 -0.061875 5.6925 -0.12375 8.625 -0.1875 C9.51010254 -0.21481201 10.39520508 -0.24212402 11.30712891 -0.27026367 C17.44553017 -0.33450757 21.60178594 0.80163711 26.25 5.0625 C29.04856109 9.76008469 30.48888307 14.76325689 29.66015625 20.25 C28.01862484 25.37857149 25.35284339 27.94374826 21 31 C18.65147472 32.17426264 17.26225935 32.11508173 14.6484375 32.09765625 C13.49867432 32.09390991 13.49867432 32.09390991 12.32568359 32.09008789 C10.86509521 32.07643188 10.86509521 32.07643188 9.375 32.0625 C6.28125 32.041875 3.1875 32.02125 0 32 C0 21.44 0 10.88 0 0 Z M9 7 C9 12.94 9 18.88 9 25 C14.76887492 25.5547002 14.76887492 25.5547002 18 23 C18 22.34 18 21.68 18 21 C18.66 21 19.32 21 20 21 C21.08269462 16.01192929 21.08269462 16.01192929 19.8125 11.1875 C17.90638498 8.88701635 16.82339658 7.91345183 14 7 C12.35 7 10.7 7 9 7 Z " fill="#181818" transform="translate(156,11)"/>
<path d="M0 0 C3.2437025 2.43277687 4.68700289 3.91654848 5.8125 7.8125 C5.874375 8.534375 5.93625 9.25625 6 10 C2.7 10 -0.6 10 -4 10 C-4 9.01 -4 8.02 -4 7 C-5.65 7.33 -7.3 7.66 -9 8 C-9 8.99 -9 9.98 -9 11 C-8.33613281 11.15855469 -7.67226563 11.31710938 -6.98828125 11.48046875 C-1.48430284 12.93480465 2.64870599 14.08476878 6 19 C6.67096636 23.17490177 6.49348946 25.17751757 4.3125 28.8125 C1.12533246 31.82738821 -0.93545401 32.94208369 -5.3671875 33.06640625 C-9.86068876 32.84639803 -12.37511743 32.4590974 -16.0625 29.75 C-17.98952988 27.01486081 -18.71697192 25.30199431 -19 22 C-16.03 22 -13.06 22 -10 22 C-9.67 22.99 -9.34 23.98 -9 25 C-7.02 25 -5.04 25 -3 25 C-4.01794238 22.24522937 -4.61456892 21.19635168 -7.27734375 19.83984375 C-8.15519531 19.54207031 -9.03304688 19.24429687 -9.9375 18.9375 C-13.34479813 17.76827988 -15.75222355 16.88594642 -18 14 C-18.97157915 10.25248043 -19.33288638 7.91543755 -18 4.25 C-13.10176875 -1.26051016 -6.83855866 -2.1002315 0 0 Z " fill="#181818" transform="translate(294,11)"/>
<path d="M0 0 C6.6 0 13.2 0 20 0 C20 2.31 20 4.62 20 7 C16.37 7 12.74 7 9 7 C9 8.65 9 10.3 9 12 C12.3 12 15.6 12 19 12 C19 14.31 19 16.62 19 19 C15.7 19 12.4 19 9 19 C9 20.98 9 22.96 9 25 C12.63 25 16.26 25 20 25 C20 27.31 20 29.62 20 32 C13.4 32 6.8 32 0 32 C0 21.44 0 10.88 0 0 Z " fill="#171717" transform="translate(248,11)"/>
<path d="M0 0 C8.25 0 16.5 0 25 0 C25 2.31 25 4.62 25 7 C22.36 7 19.72 7 17 7 C17 15.25 17 23.5 17 32 C14.03 32 11.06 32 8 32 C8 23.75 8 15.5 8 7 C5.36 7 2.72 7 0 7 C0 4.69 0 2.38 0 0 Z " fill="#191919" transform="translate(306,11)"/>
<path d="M0 0 C0.515625 0.2475 1.03125 0.495 1.5625 0.75 C1.0675 1.389375 0.5725 2.02875 0.0625 2.6875 C-1.96286103 6.82261211 -2.26440196 10.22589215 -1.4375 14.75 C-0.12016982 17.68349916 0.95938626 18.58073855 3.5625 20.75 C7.94854209 22.15600946 12.13857648 21.99422849 16.5625 20.75 C15.23892276 26.28495935 15.23892276 26.28495935 12.5625 28.125 C7.45274155 29.18953301 2.24222856 30.19715323 -2.53515625 27.6171875 C-8.84646689 22.49845997 -10.684527 16.89761486 -11.51953125 9.01953125 C-11.4375 6.75 -11.4375 6.75 -9.4375 3.75 C-6.48230045 1.50812448 -3.76851457 -0.38651431 0 0 Z " fill="#98A98E" transform="translate(21.4375,18.25)"/>
<path d="M0 0 C2.97 0 5.94 0 9 0 C9 10.56 9 21.12 9 32 C6.03 32 3.06 32 0 32 C0 21.44 0 10.88 0 0 Z " fill="#171717" transform="translate(139,11)"/>
<path d="M0 0 C2.64 0 5.28 0 8 0 C9.88319268 1.88319268 9.13054285 5.11930137 9.1328125 7.625 C9.13376923 8.28709473 9.13472595 8.94918945 9.13571167 9.63134766 C9.13639326 11.03352961 9.13454042 12.4357147 9.13037109 13.83789062 C9.12502246 15.99095713 9.1303167 18.14381502 9.13671875 20.296875 C9.13605796 21.65625046 9.13477679 23.0156258 9.1328125 24.375 C9.13168457 25.62023437 9.13055664 26.86546875 9.12939453 28.1484375 C9 31 9 31 8 32 C5.36 32 2.72 32 0 32 C0 21.44 0 10.88 0 0 Z " fill="#151515" transform="translate(193,11)"/>
<path d="M0 0 C1.175625 0.5259375 1.175625 0.5259375 2.375 1.0625 C7.13169713 2.29268029 11.18890305 1.70359916 16 1 C14.67642276 6.53495935 14.67642276 6.53495935 12 8.375 C7.65972553 9.27922385 3.41612592 9.15435003 -1 9 C-1.99 6.69 -2.98 4.38 -4 2 C-3.01 2 -2.02 2 -1 2 C-0.67 1.34 -0.34 0.68 0 0 Z " fill="#8FA58B" transform="translate(22,38)"/>
<path d="M0 0 C4.3139667 5.43934931 4.57598593 10.24245074 4 17 C2.49126288 22.77979442 -0.76907306 27.36761443 -5.5625 30.875 C-8 32 -8 32 -11 31 C-10.49339844 30.22076172 -10.49339844 30.22076172 -9.9765625 29.42578125 C-7.60108299 25.71151993 -5.44237185 22.19599085 -4 18 C-3.01 18.99 -2.02 19.98 -1 21 C-0.34 20.67 0.32 20.34 1 20 C1.02722517 17.79173622 1.04649729 15.58337362 1.0625 13.375 C1.07410156 12.14523438 1.08570313 10.91546875 1.09765625 9.6484375 C1.00863924 6.32276209 0.63686087 3.25952412 0 0 Z " fill="#5973D9" transform="translate(47,16)"/>
<path d="M0 0 C0.515625 0.2475 1.03125 0.495 1.5625 0.75 C-0.37192341 3.23711581 -2.23045121 5.56122022 -4.5625 7.6875 C-6.84390439 10.19704483 -7.55331194 12.50797713 -8.4375 15.75 C-9.0975 15.42 -9.7575 15.09 -10.4375 14.75 C-11.8625 7.3875 -11.8625 7.3875 -9.4375 3.75 C-6.48230045 1.50812448 -3.76851457 -0.38651431 0 0 Z " fill="#BFC4C5" transform="translate(21.4375,18.25)"/>
<path d="M0 0 C3.3 0 6.6 0 10 0 C10.66 1.98 11.32 3.96 12 6 C7.38 6 2.76 6 -2 6 C-1 2 -1 2 0 0 Z " fill="#5171F8" transform="translate(22,9)"/>
<path d="M0 0 C0.66 0.33 1.32 0.66 2 1 C1.34 2.32 0.68 3.64 0 5 C2.31 5 4.62 5 7 5 C7.33 5.66 7.66 6.32 8 7 C6.25014646 7.47970123 4.50011109 7.95873924 2.75 8.4375 C1.77546875 8.70433594 0.8009375 8.97117187 -0.203125 9.24609375 C-1.88938679 9.7006308 -3.58626982 10.12064396 -5.296875 10.47265625 C-5.85890625 10.64667969 -6.4209375 10.82070313 -7 11 C-7.33 11.66 -7.66 12.32 -8 13 C-8.33 12.34 -8.66 11.68 -9 11 C-8.06981474 9.53699018 -7.13055973 8.07974421 -6.1875 6.625 C-5.66542969 5.81289062 -5.14335937 5.00078125 -4.60546875 4.1640625 C-3 2 -3 2 0 0 Z " fill="#6276DE" transform="translate(20,10)"/>
<path d="M0 0 C5.28 0 10.56 0 16 0 C16 2.31 16 4.62 16 7 C14.35 7 12.7 7 11 7 C11 5.33333333 11 3.66666667 11 2 C7.37 1.67 3.74 1.34 0 1 C0 0.67 0 0.34 0 0 Z " fill="#1D1D1D" transform="translate(252,11)"/>
<path d="M0 0 C0.99 0.99 1.98 1.98 3 3 C3.66 3 4.32 3 5 3 C4.67 4.32 4.34 5.64 4 7 C2.68 7 1.36 7 0 7 C-0.33 7.66 -0.66 8.32 -1 9 C-1.66 9 -2.32 9 -3 9 C-2.01 6.03 -1.02 3.06 0 0 Z " fill="#5B70EA" transform="translate(43,34)"/>
<path d="M0 0 C3 0 3 0 5 1 C1.25474201 4.74525799 -2.98270909 4.68909949 -8 5 C-6 3 -6 3 -3.4375 2.5 C-2.633125 2.335 -1.82875 2.17 -1 2 C-0.67 1.34 -0.34 0.68 0 0 Z " fill="#0C0C0C" transform="translate(231,39)"/>
<path d="M0 0 C0.53625 0.226875 1.0725 0.45375 1.625 0.6875 C-1.7090947 2.87847652 -4.41679141 4.12204163 -8.375 4.6875 C-8.375 4.0275 -8.375 3.3675 -8.375 2.6875 C-2.95961538 -0.38942308 -2.95961538 -0.38942308 0 0 Z " fill="#9298C3" transform="translate(21.375,18.3125)"/>
<path d="M0 0 C0 1.65 0 3.3 0 5 C-0.99 5.495 -0.99 5.495 -2 6 C-2.66 5.67 -3.32 5.34 -4 5 C-4 3.68 -4 2.36 -4 1 C-2 0 -2 0 0 0 Z " fill="#92AB87" transform="translate(18,27)"/>
<path d="M0 0 C-0.33 0.99 -0.66 1.98 -1 3 C-0.67 3.66 -0.34 4.32 0 5 C-2.4375 4.1875 -2.4375 4.1875 -5 3 C-5.33 2.01 -5.66 1.02 -6 0 C-2.25 -1.125 -2.25 -1.125 0 0 Z " fill="#101010" transform="translate(283,38)"/>
<path d="M0 0 C1.98 0 3.96 0 6 0 C5.34 1.32 4.68 2.64 4 4 C1 4 1 4 -1 3 C-0.67 2.01 -0.34 1.02 0 0 Z " fill="#9CB191" transform="translate(17,37)"/>
</svg>
